<?xml version="1.0" encoding="UTF-8" standalone="no"?>
<!DOCTYPE svg PUBLIC "-//W3C//DTD SVGComponent 1.1//EN" "http://www.w3.org/Graphics/SVG/1.1/DTD/svg11.dtd">
<svg xmlns="http://www.w3.org/2000/svg" version="1.1" viewBox="0.00 0.00 34.00 34.00">
    <g stroke-width="2.00" fill="none" stroke-linecap="butt">
        <path stroke="#3f3f6a" vector-effect="non-scaling-stroke" d="
  M 20.9849 2.9832
  A 1.79 1.79 0.0 0 0 19.1918 1.1963
  L 14.9518 1.2037
  A 1.79 1.79 0.0 0 0 13.1649 2.9968
  L 13.2151 31.7368
  A 1.79 1.79 0.0 0 0 15.0082 33.5237
  L 19.2482 33.5163
  A 1.79 1.79 0.0 0 0 21.0351 31.7232
  L 20.9849 2.9832"
        />
        <path stroke="#38385a" vector-effect="non-scaling-stroke" d="
  M 32.78 2.95
  A 1.80 1.80 0.0 0 0 30.98 1.15
  L 26.60 1.15
  A 1.80 1.80 0.0 0 0 24.80 2.95
  L 24.80 31.67
  A 1.80 1.80 0.0 0 0 26.60 33.47
  L 30.98 33.47
  A 1.80 1.80 0.0 0 0 32.78 31.67
  L 32.78 2.95"
        />
        <path stroke="#46457c" vector-effect="non-scaling-stroke" d="
  M 9.28 3.20
  A 1.94 1.94 0.0 0 0 7.34 1.26
  L 3.28 1.26
  A 1.94 1.94 0.0 0 0 1.34 3.20
  L 1.34 31.58
  A 1.94 1.94 0.0 0 0 3.28 33.52
  L 7.34 33.52
  A 1.94 1.94 0.0 0 0 9.28 31.58
  L 9.28 3.20"
        />
    </g>
    <path fill="#292a3b" d="
  M 0.00 0.00
  L 34.00 0.00
  L 34.00 34.00
  L 0.00 34.00
  L 0.00 0.00
  Z
  M 20.9849 2.9832
  A 1.79 1.79 0.0 0 0 19.1918 1.1963
  L 14.9518 1.2037
  A 1.79 1.79 0.0 0 0 13.1649 2.9968
  L 13.2151 31.7368
  A 1.79 1.79 0.0 0 0 15.0082 33.5237
  L 19.2482 33.5163
  A 1.79 1.79 0.0 0 0 21.0351 31.7232
  L 20.9849 2.9832
  Z
  M 32.78 2.95
  A 1.80 1.80 0.0 0 0 30.98 1.15
  L 26.60 1.15
  A 1.80 1.80 0.0 0 0 24.80 2.95
  L 24.80 31.67
  A 1.80 1.80 0.0 0 0 26.60 33.47
  L 30.98 33.47
  A 1.80 1.80 0.0 0 0 32.78 31.67
  L 32.78 2.95
  Z
  M 9.28 3.20
  A 1.94 1.94 0.0 0 0 7.34 1.26
  L 3.28 1.26
  A 1.94 1.94 0.0 0 0 1.34 3.20
  L 1.34 31.58
  A 1.94 1.94 0.0 0 0 3.28 33.52
  L 7.34 33.52
  A 1.94 1.94 0.0 0 0 9.28 31.58
  L 9.28 3.20
  Z"
    />
    <rect fill="#545399" x="-3.91" y="-16.16" transform="translate(17.10,17.36) rotate(-0.1)" width="7.82"
          height="32.32" rx="1.79"/>
    <rect fill="#474579" x="24.80" y="1.15" width="7.98" height="32.32" rx="1.80"/>
    <rect fill="#635fbc" x="1.34" y="1.26" width="7.94" height="32.26" rx="1.94"/>
</svg>
